<svg version="1.1" viewBox="0.0 0.0 330.0 100.0" fill="none" stroke="none" stroke-linecap="square" stroke-miterlimit="10" xmlns:xlink="http://www.w3.org/1999/xlink" xmlns="http://www.w3.org/2000/svg"><clipPath id="p.0"><path d="m0 0l330.0 0l0 100.0l-330.0 0l0 -100.0z" clip-rule="nonzero"/></clipPath><g clip-path="url(#p.0)"><path fill="#000000" fill-opacity="0.0" d="m0 0l330.0 0l0 100.0l-330.0 0z" fill-rule="evenodd"/><path fill="#000000" fill-opacity="0.0" d="m-216.0 8.0l770.9921 0l0 89.95276l-770.9921 0z" fill-rule="evenodd"/><path fill="#38761d" d="m84.82419 49.835625q5.921875 1.609375 -0.1875 4.28125l0 5.078125l8.59375 0l3.375 -3.375l4.53125 3.40625q3.0625 2.578125 -0.5625 3.78125l-15.9375 0l0 9.484375l15.46875 0l3.859375 -3.859375l4.75 3.90625q3.046875 2.53125 -0.578125 3.765625l-52.28125 0l0 -3.8125l23.359375 0l0 -9.484375l-14.890625 0l0 -3.8125l14.890625 0l0 -10.296875l5.609375 0.9375zm-2.171875 -8.546875q5.5625 -4.375 8.5 -9.4375l-18.203125 0q3.125 5.234375 9.703125 9.4375zm0.359375 6.109375q-9.953125 6.421875 -24.609375 7.609375q-4.765625 -0.8125 -0.625 -3.3125q13.921875 -2.515625 20.859375 -7.375q-5.796875 -4.640625 -10.140625 -12.46875l-7.375 0l0 -3.8125l31.328125 0l1.953125 -2.5l4.59375 3.15625q4.78125 3.203125 -1.5625 3.984375q-4.625 7.265625 -9.90625 11.265625q7.875 4.03125 27.078125 4.328125q-7.765625 3.640625 -8.859375 6.65625q-13.578125 -2.515625 -22.734375 -7.53125z" fill-rule="nonzero"/><path fill="#38761d" d="m158.46481 32.03875q-3.046875 4.140625 -5.484375 7.21875q6.125 2.421875 9.609375 4.421875q3.484375 1.984375 3.921875 4.359375q0.453125 2.359375 -1.109375 4.53125q-1.5625 2.15625 -4.28125 -1.640625q-2.703125 -3.8125 -10.578125 -8.65625q-1.6875 1.859375 -5.8125 4.921875q-4.109375 3.0625 -12.671875 6.640625l-0.78125 -3.203125q8.234375 -4.484375 12.921875 -9.171875q4.6875 -4.703125 7.71875 -10.078125l-8.234375 0q-2.828125 0 -5.859375 0.828125l-4.640625 -4.640625l20.53125 0l2.796875 -2.78125l5.5 5.5l-3.546875 1.75zm-24.140625 22.34375l22.59375 0l3.28125 -3.28125l6.703125 7.09375l-14.90625 0l0 13.140625l9.046875 0l3.28125 -3.28125l6.703125 7.09375l-32.15625 0q-2.828125 0 -5.859375 0.828125l-4.640625 -4.640625l17.984375 0l0 -13.140625l-1.53125 0q-2.828125 0 -5.859375 0.828125l-4.640625 -4.640625zm-10.359375 1.875l12.140625 -2.046875l0.8125 3.1875q-5.5 1.4375 -9.875 2.890625q-4.359375 1.453125 -8.21875 4.15625l-4.296875 -6.796875q3.484375 -1.046875 6.671875 -4.65625q3.1875 -3.625 4.984375 -6.390625q-0.5625 0.109375 -3.203125 0.78125q-2.640625 0.65625 -6.625 3.09375l-3.28125 -6.921875q3.671875 -0.90625 7.28125 -7.46875q3.625 -6.578125 5.109375 -12.875l7.859375 4.84375l-3.40625 2.28125q-6.359375 10.453125 -8.640625 12.625l7.5 -0.453125q2.578125 -3.96875 4.734375 -9.46875l7.65625 5.75l-4.265625 1.5625q-7.1875 10.328125 -12.9375 15.90625zm-7.046875 19.46875l-3.765625 -6.8125q12.859375 -2.359375 24.5625 -5.15625l0.75 3.1875q-5.171875 1.734375 -11.609375 4.0q-6.4375 2.25 -9.9375 4.78125zm74.84375 -41.515625q4.984375 3.0625 6.453125 4.96875q1.484375 1.90625 -0.84375 5.59375q-2.3125 3.6875 -3.46875 -0.265625q-1.15625 -3.953125 -4.5 -8.6875l2.359375 -1.609375zm19.953125 24.296875l3.34375 0q-0.25 7.453125 2.546875 7.734375q-2.078125 5.015625 -6.109375 5.015625l-6.90625 0q-5.15625 -0.3125 -4.84375 -5.375l0 -9.0625l-0.921875 0q-0.8125 6.8125 -4.0 10.984375q-3.1875 4.171875 -12.234375 7.71875l-0.984375 -2.84375q7.0 -3.984375 9.25 -7.84375q2.265625 -3.875 2.59375 -8.015625l-0.671875 0l0 1.171875l-5.53125 2.5625q0.34375 -5.671875 0.34375 -9.640625q0 -3.96875 -0.375 -9.5l4.6875 2.890625l8.28125 0q2.359375 -5.109375 3.578125 -11.3125l7.59375 4.796875l-3.625 2.03125q-2.578125 3.4375 -3.296875 4.484375l2.078125 0l2.0 -2.875l5.09375 4.328125l-2.265625 1.9375q0 5.578125 0.296875 9.921875l-5.25 1.734375l0 -2.53125l-1.453125 0l0 8.21875q-0.125 1.625 1.9375 1.484375l3.484375 0q0.59375 0 0.828125 -1.40625q0.25 -1.40625 0.53125 -6.609375zm-18.9375 -10.390625l0 4.890625l13.609375 0l0 -4.890625l-13.609375 0zm-10.515625 -25.515625q7.4375 4.140625 8.609375 6.1875q1.171875 2.046875 -1.03125 6.109375q-2.203125 4.046875 -3.765625 -0.609375q-1.546875 -4.65625 -5.4375 -9.3125l1.625 -2.375zm-5.5625 7.546875l8.1875 4.296875l-2.40625 2.40625l0 39.671875l-5.71875 2.828125q0.296875 -10.25 0.296875 -26.71875q0 -16.46875 -0.359375 -22.484375zm31.984375 43.375l0 -3.1875q7.21875 0.546875 8.0625 0.546875q0.859375 0 0.859375 -1.078125l0 -38.421875l-17.109375 0q-1.671875 0 -4.703125 0.828125l-4.640625 -4.640625l26.59375 0l1.96875 -2.796875l5.859375 4.421875l-2.546875 2.203125l0 39.296875q0.28125 6.734375 -7.484375 8.421875q0 -3.984375 -6.859375 -5.59375zm35.203125 -6.140625l7.609375 -4.734375l1.6875 2.5625q-8.234375 7.265625 -11.625 11.875l-4.359375 -5.4375q1.265625 -1.578125 1.265625 -3.21875l0.53125 -21.765625l0 0.53125q-2.828125 0 -5.859375 0.828125l-4.640625 -4.640625l10.6875 0l2.5625 -2.5625l4.796875 4.8125l-2.65625 2.09375l0 19.65625zm-9.171875 -40.3125l1.59375 -2.421875q4.3125 2.453125 6.796875 4.5625q2.484375 2.09375 2.015625 4.578125q-0.453125 2.46875 -2.796875 3.640625q-2.34375 1.171875 -3.171875 -2.53125q-0.828125 -3.703125 -4.4375 -7.828125zm39.734375 20.8125l2.625 -5.03125l-24.109375 0q-1.671875 0 -4.703125 0.828125l-4.640625 -4.640625l17.984375 0l0 -4.671875l-4.515625 0q-2.8125 0 -5.859375 0.828125l-4.640625 -4.640625l15.015625 0q0 -2.640625 -0.359375 -8.5l8.609375 3.890625l-2.828125 2.484375l0 2.125l6.515625 0l3.0625 -3.046875l6.4375 6.859375l-16.015625 0l0 4.671875l11.0625 0l2.78125 -3.078125l6.921875 6.90625q-5.34375 0.390625 -10.453125 6.484375l-2.890625 -1.46875zm-21.3125 -2.171875l0.90625 -2.625q6.71875 2.0625 8.484375 4.125q1.78125 2.0625 -0.171875 5.390625q-1.9375 3.3125 -3.640625 -0.234375q-1.6875 -3.546875 -5.578125 -6.65625zm-2.765625 4.015625q6.921875 2.296875 8.84375 4.21875q1.921875 1.921875 0 5.359375q-1.921875 3.4375 -3.875 -0.296875q-1.953125 -3.734375 -5.875 -6.609375l0.90625 -2.671875zm21.203125 -1.109375q-0.421875 9.421875 -0.84375 11.5l6.484375 0l3.515625 -3.515625l6.921875 7.328125l-17.796875 0q-0.40625 1.09375 -0.9375 2.171875q5.390625 1.671875 8.875 3.65625q3.484375 1.984375 4.09375 4.265625q0.609375 2.296875 -1.15625 4.25q-1.75 1.96875 -4.40625 -1.75q-2.640625 -3.71875 -9.234375 -7.203125q-5.640625 7.796875 -20.546875 10.109375l-0.765625 -3.140625q15.640625 -4.265625 18.34375 -12.359375l-10.0 0q-1.6875 0 -4.71875 0.828125l-4.640625 -4.640625l20.234375 0q0.734375 -4.609375 0.734375 -18.140625l8.671875 4.171875l-2.828125 2.46875z" fill-rule="nonzero"/></g></svg>